<svg width="60" height="60" viewBox="0 0 60 60" fill="none" xmlns="http://www.w3.org/2000/svg">
<path d="M30 60C46.5683 60 60.0009 46.5693 60.0009 30C60.0009 13.4325 46.5683 0 30 0C13.4316 0 2.63075e-10 13.4325 2.63075e-10 30C-6.86391e-05 46.5693 13.4315 60 30 60Z" fill="white"/>
<path d="M22.7629 24.9206H25.8644V21.9063C25.8644 20.5771 25.8979 18.5273 26.8635 17.2578C27.8805 15.9134 29.2766 14.9995 31.6781 14.9995C35.5907 14.9995 37.2384 15.5576 37.2384 15.5576L36.4632 20.1526C36.4632 20.1526 35.1704 19.7788 33.9646 19.7788C32.7581 19.7788 31.6781 20.2111 31.6781 21.4169V24.9206H36.6243L36.279 29.4088H31.6781V45.0004H25.8644V29.4088H22.7629V24.9206Z" fill="#537BBC"/>
</svg>
