<svg width="60" height="60" viewBox="0 0 60 60" fill="none" xmlns="http://www.w3.org/2000/svg">
<circle cx="30" cy="30" r="30" fill="white"/>
<path d="M26.875 35.625V24.6875L36.25 30.175L26.875 35.625ZM48.375 22.6047C48.375 22.6047 48.0078 20.0031 46.8844 18.8563C45.4578 17.3516 43.8594 17.3453 43.1266 17.2578C37.8797 16.875 30.0078 16.875 30.0078 16.875H29.9922C29.9922 16.875 22.1203 16.875 16.8734 17.2578C16.1391 17.3453 14.5422 17.3516 13.1141 18.8563C11.9906 20.0031 11.625 22.6062 11.625 22.6062C11.625 22.6062 11.25 25.6594 11.25 28.7141V31.5813C11.25 34.6375 11.625 37.6938 11.625 37.6938C11.625 37.6938 11.9906 40.2953 13.1141 41.4422C14.5422 42.9469 16.4156 42.8984 17.25 43.0562C20.25 43.3484 30 43.4375 30 43.4375C30 43.4375 37.8797 43.425 43.1266 43.0437C43.8609 42.9547 45.4578 42.9484 46.8844 41.4437C48.0094 40.2969 48.375 37.6938 48.375 37.6938C48.375 37.6938 48.75 34.6391 48.75 31.5828V28.7172C48.75 25.6609 48.375 22.6047 48.375 22.6047Z" fill="#FF0000"/>
</svg>
