<svg width="60" height="60" viewBox="0 0 60 60" fill="none" xmlns="http://www.w3.org/2000/svg">
<circle cx="30" cy="30" r="30" fill="white"/>
<path d="M29.6702 11.25C18.4611 11.25 9.375 18.3997 9.375 27.2186C9.375 35.4105 17.2182 42.1574 27.3178 43.0765C27.4849 43.1049 27.6443 43.1674 27.7862 43.26C27.9281 43.3526 28.0494 43.4734 28.1426 43.6149C28.5909 44.3528 28.2723 45.9247 27.9242 47.6873C27.5761 49.4497 29.4691 48.5352 29.8879 48.3309C30.2213 48.1692 38.8018 43.334 43.9101 38.5925C47.6457 35.6956 49.9642 31.6701 49.9642 27.2191C49.9655 18.3997 40.8787 11.25 29.6702 11.25ZM22.9333 31.3726C22.928 31.9701 22.438 32.4505 21.8387 32.4457H18.116C17.459 32.4457 16.5832 32.2192 16.5832 31.1579V23.2213C16.5845 23.079 16.6138 22.9385 16.6695 22.8076C16.7252 22.6768 16.8062 22.5582 16.9078 22.4587C17.1133 22.2573 17.3902 22.1456 17.6779 22.1482H17.8971C18.1848 22.1456 18.4617 22.2573 18.6672 22.4587C18.7688 22.5582 18.8498 22.6768 18.9055 22.8076C18.9612 22.9385 18.9905 23.079 18.9917 23.2213V30.085H21.8381C22.4376 30.0798 22.9279 30.5601 22.9333 31.1579V31.3726ZM25.9797 31.1434C25.9797 31.7442 25.4897 32.2311 24.8856 32.2311C24.2812 32.2311 23.7915 31.7442 23.7915 31.1434V23.4505C23.7915 22.8497 24.2812 22.3627 24.8856 22.3627C25.4897 22.3627 25.9797 22.8497 25.9797 23.4505V31.1434ZM35.5448 31.1425C35.4834 31.7135 35.0271 32.162 34.4552 32.2135C34.2039 32.2564 33.9454 32.2204 33.7154 32.1104C33.4854 32.0005 33.2952 31.8219 33.1708 31.5994L29.6599 26.6761V31.1412C29.6458 31.7326 29.1623 32.2046 28.5706 32.2046C27.9792 32.2046 27.4955 31.7326 27.4814 31.1412V23.433C27.4826 23.2912 27.5117 23.1511 27.5671 23.0206C27.6225 22.89 27.7031 22.7717 27.8042 22.6723C27.9053 22.5729 28.025 22.4944 28.1565 22.4413C28.288 22.3882 28.4286 22.3615 28.5704 22.3627C28.8291 22.3643 29.0822 22.4386 29.3006 22.5773C29.5191 22.716 29.6941 22.9134 29.8055 23.1469C30.1434 23.6456 33.3679 28.1407 33.3679 28.1407V23.433C33.3825 22.8417 33.8662 22.3699 34.4579 22.3699C35.0495 22.3699 35.5332 22.8417 35.5478 23.4331V31.1412L35.5448 31.1425H35.5448ZM42.1281 26.224C42.5121 26.224 42.8668 26.4285 43.0588 26.7604C43.1532 26.9235 43.2028 27.1085 43.2028 27.2969C43.2028 27.4853 43.1532 27.6703 43.0588 27.8334C42.9644 27.9966 42.8286 28.1321 42.6653 28.2262C42.5019 28.3204 42.3167 28.3699 42.1281 28.3699H39.285V30.0856H42.1279C42.3193 30.0811 42.5084 30.1277 42.6757 30.2207C42.843 30.3137 42.9824 30.4497 43.0796 30.6146C43.1767 30.7794 43.2279 30.9671 43.2279 31.1583C43.2279 31.3496 43.1767 31.5373 43.0796 31.702C42.9824 31.8669 42.8429 32.0028 42.6756 32.0958C42.5083 32.1887 42.3193 32.2354 42.1279 32.2308H37.8638C37.7356 32.2324 37.6083 32.2086 37.4893 32.1609C37.3703 32.1131 37.2619 32.0424 37.1702 31.9527C37.0786 31.8632 37.0056 31.7565 36.9555 31.6387C36.9053 31.5209 36.8789 31.3943 36.8779 31.2663V23.3282C36.8789 23.2001 36.9052 23.0735 36.9553 22.9556C37.0055 22.8377 37.0784 22.7309 37.17 22.6413C37.2617 22.5516 37.3702 22.4808 37.4892 22.4331C37.6082 22.3853 37.7355 22.3615 37.8638 22.363H42.1281C42.3194 22.3585 42.5085 22.4051 42.6758 22.4981C42.8431 22.591 42.9825 22.7269 43.0798 22.8918C43.1768 23.0566 43.2279 23.2443 43.2279 23.4355C43.2279 23.6267 43.1768 23.8145 43.0798 23.9792C42.9825 24.1441 42.8431 24.28 42.6758 24.373C42.5085 24.466 42.3195 24.5127 42.1281 24.5082H39.285V26.2246H42.1279L42.1281 26.224Z" fill="#00C300"/>
</svg>
