<svg width="16" height="16" viewBox="0 0 16 16" fill="none" xmlns="http://www.w3.org/2000/svg">
<path d="M8.01502 10.6044C8.57752 10.6044 11.7294 6.65939 11.7294 4.60439C11.7294 3.61928 11.3381 2.67451 10.6415 1.97793C9.9449 1.28135 9.00013 0.890015 8.01502 0.890015C7.02991 0.890015 6.08514 1.28135 5.38856 1.97793C4.69198 2.67451 4.30064 3.61928 4.30064 4.60439C4.30064 6.65939 7.45252 10.6044 8.01502 10.6044ZM5.61314 4.60439C5.61314 3.96737 5.8662 3.35645 6.31664 2.90601C6.76708 2.45557 7.378 2.20251 8.01502 2.20251C8.65204 2.20251 9.26296 2.45557 9.7134 2.90601C10.1638 3.35645 10.4169 3.96737 10.4169 4.60439C10.4169 5.0047 10.1028 5.95158 9.21877 7.30345C8.85509 7.86206 8.45286 8.39461 8.01502 8.8972C7.57717 8.39461 7.17494 7.86206 6.81127 7.30345C5.92721 5.95626 5.61314 5.00845 5.61314 4.60814V4.60439Z" fill="#333333"/>
<path d="M7.07752 4.40095C7.07752 4.64959 7.17629 4.88805 7.3521 5.06386C7.52792 5.23968 7.76638 5.33845 8.01502 5.33845C8.26366 5.33845 8.50211 5.23968 8.67793 5.06386C8.85374 4.88805 8.95251 4.64959 8.95251 4.40095C8.95251 4.15231 8.85374 3.91385 8.67793 3.73804C8.50211 3.56222 8.26366 3.46345 8.01502 3.46345C7.76638 3.46345 7.52792 3.56222 7.3521 3.73804C7.17629 3.91385 7.07752 4.15231 7.07752 4.40095Z" fill="#333333"/>
<path d="M12.576 6.15033L13.1619 6.90502C13.1696 6.91478 13.1792 6.92291 13.1902 6.92891C13.2011 6.93492 13.2131 6.93869 13.2255 6.94C13.2379 6.94131 13.2504 6.94013 13.2624 6.93654C13.2743 6.93295 13.2854 6.92701 13.295 6.91908L13.6747 6.60502C13.6884 6.59389 13.705 6.58686 13.7225 6.58474C13.7401 6.58263 13.7578 6.58551 13.7738 6.59305C13.7898 6.60059 13.8033 6.6125 13.8128 6.62738C13.8223 6.64227 13.8274 6.65954 13.8275 6.6772V11.405C13.8276 11.4206 13.8238 11.436 13.8164 11.4497C13.809 11.4635 13.7984 11.4752 13.7853 11.4838L10.4938 13.6316C10.4795 13.6398 10.4633 13.6441 10.4469 13.6441C10.4304 13.6441 10.4143 13.6398 10.4 13.6316L5.45845 10.7816C5.4442 10.7733 5.42803 10.769 5.41158 10.769C5.39512 10.769 5.37895 10.7733 5.3647 10.7816L2.34783 12.8131C2.33379 12.8224 2.31753 12.8277 2.30075 12.8285C2.28396 12.8293 2.26727 12.8256 2.25241 12.8177C2.23756 12.8099 2.22509 12.7982 2.21631 12.7838C2.20753 12.7695 2.20277 12.7531 2.20251 12.7363V7.99626C2.20238 7.98257 2.20524 7.969 2.21091 7.95653C2.21658 7.94406 2.22492 7.93298 2.23533 7.92408L3.45408 6.90126C3.4716 6.88631 3.48301 6.86543 3.48612 6.84261C3.48923 6.81978 3.48383 6.79661 3.47095 6.77751L2.88314 5.9047C2.87618 5.89442 2.86724 5.88561 2.85685 5.87881C2.84646 5.87201 2.83482 5.86733 2.82261 5.86507C2.8104 5.8628 2.79786 5.86298 2.78572 5.8656C2.77358 5.86822 2.76208 5.87323 2.75189 5.88033L0.930327 7.15251C0.917909 7.16113 0.907757 7.17262 0.900738 7.18601C0.893718 7.19939 0.89004 7.21427 0.890015 7.22939V14.9731C0.890148 14.9898 0.894724 15.0061 0.903272 15.0205C0.91182 15.0348 0.92403 15.0465 0.938644 15.0546C0.953258 15.0626 0.969747 15.0666 0.986412 15.0661C1.00308 15.0656 1.01931 15.0607 1.03345 15.0519L5.39001 12.2685C5.40427 12.2602 5.42043 12.2559 5.43689 12.2559C5.45335 12.2559 5.46951 12.2602 5.48377 12.2685L10.415 15.1185C10.4293 15.1267 10.4454 15.131 10.4619 15.131C10.4783 15.131 10.4945 15.1267 10.5088 15.1185L15.0885 12.2694C15.1018 12.261 15.1129 12.2494 15.1206 12.2357C15.1283 12.2219 15.1324 12.2064 15.1325 12.1906V4.45627C15.1324 4.43931 15.1276 4.42272 15.1188 4.40824C15.11 4.39377 15.0974 4.38196 15.0824 4.37407C15.0674 4.36619 15.0505 4.36252 15.0336 4.36345C15.0167 4.36439 15.0003 4.3699 14.9863 4.37939L12.5966 6.01626C12.5862 6.02352 12.5774 6.03281 12.5707 6.04358C12.564 6.05434 12.5595 6.06635 12.5576 6.07888C12.5557 6.09141 12.5563 6.10421 12.5594 6.11649C12.5626 6.12877 12.5682 6.14028 12.576 6.15033Z" fill="#333333"/>
</svg>
