<svg width="40" height="40" viewBox="0 0 40 40" fill="none" xmlns="http://www.w3.org/2000/svg">
<path d="M20 4C11.1805 4 4 11.1805 4 20C4 28.8195 11.1805 36 20 36C28.8195 36 36 28.8195 36 20C36 11.1805 28.8195 4 20 4ZM11.8049 30.9268C11.8049 26.4 15.4732 22.7317 20 22.7317C24.5268 22.7317 28.1951 26.4 28.1951 30.9268C25.9317 32.6439 23.0439 33.6585 20 33.6585C16.9561 33.6585 14.0683 32.6439 11.8049 30.9268ZM16.4878 16.878C16.4878 14.9268 18.0488 13.3659 20 13.3659C21.9512 13.3659 23.5122 14.9268 23.5122 16.878C23.5122 18.8293 21.9512 20.3902 20 20.3902C18.0488 20.3902 16.4878 18.8293 16.4878 16.878ZM30.3024 28.8976C29.6 25.3854 27.1805 22.4976 23.9024 21.1707C25.0732 20.0781 25.7756 18.5951 25.7756 16.878C25.7756 13.678 23.122 11.0244 19.922 11.0244C16.722 11.0244 14.0683 13.678 14.0683 16.878C14.0683 18.5951 14.7707 20.0781 15.9415 21.1707C12.6634 22.4976 10.2439 25.3854 9.54146 28.8976C7.5122 26.4781 6.18537 23.4341 6.18537 20C6.18537 12.5073 12.3512 6.34146 19.8439 6.34146C27.3366 6.34146 33.6585 12.5073 33.6585 20C33.6585 23.4341 32.4098 26.4781 30.3024 28.8976Z" fill="black"/>
</svg>
