<svg width="40" height="40" viewBox="0 0 40 40" fill="none" xmlns="http://www.w3.org/2000/svg">
<path d="M29.8806 25.5783L35.5803 29.6771C35.7985 29.8338 35.9449 30.0696 35.9873 30.3328C36.0297 30.596 35.9647 30.865 35.8065 31.0809L35.3174 31.7491C35.2387 31.8565 35.1394 31.9476 35.025 32.017C34.9107 32.0864 34.7836 32.1328 34.651 32.1536C34.5184 32.1743 34.383 32.169 34.2525 32.1379C34.122 32.1069 33.9991 32.0507 33.8906 31.9725L28.3203 27.9663C27.0402 29.5392 25.4187 30.8081 23.5755 31.6794C21.7323 32.5506 19.7144 33.0019 17.671 33C10.1206 33 4 26.9559 4 19.5C4 12.0441 10.1206 6 17.671 6C25.2213 6 31.3419 12.0441 31.3419 19.5C31.3419 21.6868 30.8151 23.7518 29.8806 25.5783ZM17.671 30.1521C23.6285 30.1521 28.4579 25.382 28.4579 19.5C28.4579 13.617 23.6275 8.84793 17.671 8.84793C11.7134 8.84793 6.884 13.618 6.884 19.5C6.884 25.383 11.7144 30.1521 17.671 30.1521Z" fill="black"/>
</svg>
