<svg width="14" height="16" viewBox="0 0 14 16" fill="none" xmlns="http://www.w3.org/2000/svg">
<path d="M6.6 0C2.96 0 0 3 0 6.64C0 11.6 6 15.72 6.28 15.88C6.4 15.96 6.48 16 6.6 16C6.72 16 6.84 15.96 6.92 15.88C7.16 15.72 13.2 11.6 13.2 6.64C13.2 3 10.24 0 6.6 0ZM6.6 14.68C5.36 13.76 1.2 10.4 1.2 6.68C1.2 3.68 3.64 1.24 6.6 1.24C9.56 1.24 12 3.68 12 6.68C12 10.36 7.84 13.76 6.6 14.68Z" fill="#0566B3"/>
<path d="M6.6 4.39999C5.16 4.39999 4 5.55999 4 6.99999C4 8.43999 5.16 9.59999 6.6 9.59999C8.04 9.59999 9.2 8.43999 9.2 6.99999C9.2 5.55999 8.04 4.39999 6.6 4.39999ZM6.6 8.39999C5.84 8.39999 5.2 7.75999 5.2 6.99999C5.2 6.23999 5.84 5.59999 6.6 5.59999C7.36 5.59999 8 6.23999 8 6.99999C8 7.75999 7.36 8.39999 6.6 8.39999Z" fill="#0566B3"/>
</svg>
