<svg width="40" height="40" viewBox="0 0 40 40" fill="none" xmlns="http://www.w3.org/2000/svg">
<path d="M30.6953 18.6029C30.0528 17.1618 29.1332 15.8851 27.9634 14.8124L27.0042 13.9338C26.8624 13.8087 26.6386 13.8648 26.5759 14.0424L26.1474 15.2698C25.8805 16.0398 25.3895 16.8263 24.694 17.5995C24.6479 17.6487 24.595 17.662 24.559 17.6653C24.5226 17.6685 24.4667 17.662 24.4171 17.616C24.371 17.5767 24.3479 17.5174 24.3512 17.4581C24.473 15.4773 23.8797 13.243 22.5813 10.8115C21.5075 8.79085 20.0146 7.21464 18.1492 6.11563L16.7884 5.31616C16.6105 5.2108 16.3832 5.34921 16.3929 5.55639L16.4656 7.13584C16.515 8.21508 16.39 9.16949 16.0932 9.96246C15.7305 10.9331 15.21 11.8347 14.5441 12.6442C14.0762 13.2102 13.5522 13.7202 12.9788 14.1611C11.5914 15.2238 10.4478 16.6091 9.6734 18.159C8.8922 19.7255 8.48047 21.479 8.48047 23.2362C8.48047 24.7894 8.78698 26.293 9.39319 27.7113C9.97961 29.0768 10.817 30.3074 11.8813 31.3604C12.9492 32.4134 14.1883 33.2427 15.5689 33.8184C16.9991 34.4172 18.5151 34.72 20.0805 34.72C21.6458 34.72 23.1615 34.4172 24.5921 33.8217C25.973 33.2459 27.2153 32.4202 28.2796 31.3637C29.3472 30.3107 30.1843 29.08 30.7677 27.7145C31.3743 26.2965 31.6805 24.7926 31.6805 23.2397C31.6808 21.6334 31.3512 20.0737 30.6953 18.6029Z" fill="#EA5513"/>
<path d="M28.0163 21.7662V22.5779H24.7858V21.7662H28.0163ZM25.7273 20.2727H26.6851V26.2143C26.6851 26.4848 26.7243 26.6877 26.8028 26.823C26.884 26.9556 26.9868 27.0449 27.1113 27.0909C27.2384 27.1342 27.3723 27.1558 27.513 27.1558C27.6186 27.1558 27.7051 27.1504 27.7728 27.1396C27.8404 27.1261 27.8945 27.1152 27.9351 27.1071L28.1299 27.9675C28.065 27.9919 27.9743 28.0162 27.858 28.0406C27.7417 28.0676 27.5942 28.0811 27.4156 28.0811C27.1451 28.0811 26.8799 28.023 26.6202 27.9066C26.3631 27.7903 26.1494 27.6131 25.9789 27.375C25.8112 27.1369 25.7273 26.8366 25.7273 26.474V20.2727Z" fill="white"/>
<path d="M21.0184 28.1299C20.4556 28.1299 19.9619 27.9959 19.5371 27.7281C19.115 27.4602 18.7849 27.0855 18.5468 26.6039C18.3114 26.1223 18.1937 25.5595 18.1937 24.9156C18.1937 24.2662 18.3114 23.6994 18.5468 23.2151C18.7849 22.7308 19.115 22.3547 19.5371 22.0868C19.9619 21.819 20.4556 21.6851 21.0184 21.6851C21.5812 21.6851 22.0736 21.819 22.4957 22.0868C22.9205 22.3547 23.2505 22.7308 23.4859 23.2151C23.724 23.6994 23.8431 24.2662 23.8431 24.9156C23.8431 25.5595 23.724 26.1223 23.4859 26.6039C23.2505 27.0855 22.9205 27.4602 22.4957 27.7281C22.0736 27.9959 21.5812 28.1299 21.0184 28.1299ZM21.0184 27.2695C21.4459 27.2695 21.7976 27.1599 22.0736 26.9407C22.3496 26.7216 22.5538 26.4334 22.6864 26.0763C22.819 25.7191 22.8853 25.3322 22.8853 24.9156C22.8853 24.4989 22.819 24.1107 22.6864 23.7508C22.5538 23.391 22.3496 23.1001 22.0736 22.8782C21.7976 22.6564 21.4459 22.5454 21.0184 22.5454C20.5909 22.5454 20.2392 22.6564 19.9632 22.8782C19.6872 23.1001 19.483 23.391 19.3504 23.7508C19.2178 24.1107 19.1515 24.4989 19.1515 24.9156C19.1515 25.3322 19.2178 25.7191 19.3504 26.0763C19.483 26.4334 19.6872 26.7216 19.9632 26.9407C20.2392 27.1599 20.5909 27.2695 21.0184 27.2695Z" fill="white"/>
<path d="M12.6916 24.25V28H11.7338V19.6883H12.6916V22.7402H12.7727C12.9188 22.4183 13.138 22.1626 13.4302 21.9732C13.7251 21.7811 14.1174 21.685 14.6071 21.685C15.0319 21.685 15.4039 21.7703 15.7232 21.9407C16.0425 22.1085 16.29 22.3669 16.4659 22.7159C16.6445 23.0622 16.7338 23.5032 16.7338 24.0389V28H15.776V24.1039C15.776 23.6087 15.6475 23.2259 15.3904 22.9553C15.1361 22.6821 14.783 22.5454 14.3312 22.5454C14.0173 22.5454 13.7359 22.6117 13.487 22.7443C13.2408 22.8769 13.046 23.0703 12.9026 23.3247C12.7619 23.579 12.6916 23.8874 12.6916 24.25Z" fill="white"/>
</svg>
