<svg width="48" height="48" viewBox="0 0 48 48" fill="none" xmlns="http://www.w3.org/2000/svg">
<rect x="48" y="48" width="48" height="48" transform="rotate(180 48 48)" fill="white"/>
<path d="M33.0569 6.51688C33.4569 6.51688 33.8569 6.71688 34.1569 7.01688C34.7569 7.61688 34.6569 8.61688 34.0569 9.11688L17.3569 24.0169L34.0569 38.9169C34.6569 39.4169 34.7569 40.4169 34.1569 41.0169C33.6569 41.6169 32.6569 41.7169 32.0569 41.1169L14.0569 25.1169C13.7569 24.8169 13.5569 24.4169 13.5569 24.0169C13.5569 23.6169 13.7569 23.2169 14.0569 22.9169L32.0569 6.91688C32.3569 6.61688 32.6569 6.51688 33.0569 6.51688Z" fill="#666666"/>
</svg>
