<svg width="20" height="17" viewBox="0 0 20 17" fill="none" xmlns="http://www.w3.org/2000/svg">
<path d="M0 4.24981L3.40834 0L6.90021 4.24981H0Z" fill="#FFD666"/>
<path d="M19.9997 4.24981L16.5866 0L13.3188 4.24981H20H19.9997Z" fill="#FFA940"/>
<path d="M0 4.24982L9.98892 16.1663L6.90346 4.24982H0Z" fill="#FFC53D"/>
<path d="M19.956 4.24982L9.98895 16.1663L13.2984 4.24982H19.956Z" fill="#FA8C16"/>
<path d="M3.37354 0H10.0108L6.69215 4.24981L3.37354 0Z" fill="#FFC53D"/>
<path d="M9.9671 0H16.6043L13.3096 4.24981L9.9671 0Z" fill="#FFC53D"/>
<path d="M6.68121 4.2439L9.9957 0L13.3185 4.2442L12.9371 5.52012L7.06874 5.46492L6.68121 4.2439Z" fill="#FFA940"/>
<path d="M6.703 4.24982L9.99476 16.1663L13.3181 4.24982H6.703Z" fill="#FAAD14"/>
</svg>
