<svg width="14" height="14" viewBox="0 0 14 14" fill="none" xmlns="http://www.w3.org/2000/svg">
<path d="M12.32 0.851728C12.3653 0.804409 12.4196 0.766612 12.4797 0.740554C12.5398 0.714496 12.6044 0.700702 12.6699 0.699981C12.7354 0.69926 12.8004 0.711627 12.8611 0.736356C12.9217 0.761085 12.9768 0.797678 13.0231 0.843988C13.0694 0.890298 13.106 0.945392 13.1308 1.00604C13.1555 1.06668 13.1679 1.13166 13.1672 1.19715C13.1664 1.26264 13.1527 1.32733 13.1266 1.38742C13.1006 1.44751 13.0628 1.5018 13.0155 1.54709L6.06057 8.50213C6.0149 8.5478 5.96068 8.58403 5.901 8.60875C5.84132 8.63347 5.77736 8.64619 5.71277 8.64619C5.64818 8.64619 5.58422 8.63347 5.52454 8.60875C5.46487 8.58403 5.41065 8.5478 5.36497 8.50213C5.3193 8.45645 5.28307 8.40223 5.25835 8.34256C5.23363 8.28288 5.22091 8.21892 5.22091 8.15433C5.22091 8.08974 5.23363 8.02577 5.25835 7.9661C5.28307 7.90642 5.3193 7.8522 5.36497 7.80653L12.32 0.851808V0.851648V0.851728ZM12.1759 5.95365C12.1759 5.8232 12.2277 5.6981 12.3199 5.60586C12.4121 5.51363 12.5372 5.46181 12.6677 5.46181C12.7981 5.46181 12.9232 5.51363 13.0155 5.60586C13.1077 5.6981 13.1595 5.8232 13.1595 5.95365V11.3637C13.1595 12.3597 12.3521 13.1671 11.3562 13.1671H2.50337C1.50737 13.1671 0.700012 12.3596 0.700012 11.3637V2.51093C0.700012 1.51493 1.50745 0.707568 2.50337 0.707568H7.74945C7.8799 0.707568 8.005 0.759386 8.09724 0.851624C8.18947 0.943862 8.24129 1.06896 8.24129 1.19941C8.24129 1.32985 8.18947 1.45495 8.09724 1.54719C8.005 1.63943 7.8799 1.69125 7.74945 1.69125H2.50337C2.05065 1.69125 1.68369 2.05821 1.68369 2.51093V11.3637C1.68369 11.8164 2.05065 12.1834 2.50337 12.1834H11.3562C11.8089 12.1834 12.1759 11.8164 12.1759 11.3637V5.95365Z" fill="black"/>
</svg>
