<svg width="14" height="14" viewBox="0 0 14 14" fill="none" xmlns="http://www.w3.org/2000/svg">
<path d="M12.32 0.851728C12.3653 0.804409 12.4196 0.766612 12.4797 0.740554C12.5397 0.714496 12.6044 0.700702 12.6699 0.699981C12.7354 0.69926 12.8004 0.711627 12.861 0.736356C12.9217 0.761085 12.9768 0.797678 13.0231 0.843988C13.0694 0.890298 13.106 0.945392 13.1307 1.00604C13.1555 1.06668 13.1679 1.13166 13.1671 1.19715C13.1664 1.26264 13.1526 1.32733 13.1266 1.38742C13.1005 1.44751 13.0628 1.5018 13.0154 1.54709L6.06056 8.50213C6.01489 8.5478 5.96066 8.58403 5.90099 8.60875C5.84131 8.63347 5.77735 8.64619 5.71276 8.64619C5.64817 8.64619 5.58421 8.63347 5.52453 8.60875C5.46486 8.58403 5.41063 8.5478 5.36496 8.50213C5.31929 8.45645 5.28306 8.40223 5.25834 8.34256C5.23362 8.28288 5.2209 8.21892 5.2209 8.15433C5.2209 8.08974 5.23362 8.02577 5.25834 7.9661C5.28306 7.90642 5.31929 7.8522 5.36496 7.80653L12.32 0.851808V0.851648V0.851728ZM12.1758 5.95365C12.1758 5.8232 12.2277 5.6981 12.3199 5.60586C12.4121 5.51363 12.5372 5.46181 12.6677 5.46181C12.7981 5.46181 12.9232 5.51363 13.0155 5.60586C13.1077 5.6981 13.1595 5.8232 13.1595 5.95365V11.3637C13.1595 12.3597 12.3521 13.1671 11.3562 13.1671H2.50336C1.50736 13.1671 0.700001 12.3596 0.700001 11.3637V2.51093C0.700001 1.51493 1.50744 0.707568 2.50336 0.707568H7.74944C7.87988 0.707568 8.00499 0.759386 8.09722 0.851624C8.18946 0.943862 8.24128 1.06896 8.24128 1.19941C8.24128 1.32985 8.18946 1.45495 8.09722 1.54719C8.00499 1.63943 7.87988 1.69125 7.74944 1.69125H2.50336C2.05064 1.69125 1.68368 2.05821 1.68368 2.51093V11.3637C1.68368 11.8164 2.05064 12.1834 2.50336 12.1834H11.3562C11.8089 12.1834 12.1758 11.8164 12.1758 11.3637V5.95365Z" fill="#EA5513"/>
</svg>
