<svg width="18" height="18" viewBox="0 0 18 18" fill="none" xmlns="http://www.w3.org/2000/svg">
<path d="M15.6826 4.4325H10.6201C10.3091 4.4325 10.0576 4.1805 10.0576 3.87C10.0576 3.5595 10.3091 3.3075 10.6201 3.3075H15.6826C15.9937 3.3075 16.2451 3.5595 16.2451 3.87C16.2451 4.1805 15.9937 4.4325 15.6826 4.4325ZM15.6826 7.245H10.6201C10.3091 7.245 10.0576 6.993 10.0576 6.6825C10.0576 6.37199 10.3091 6.12 10.6201 6.12H15.6826C15.9937 6.12 16.2451 6.37199 16.2451 6.6825C16.2451 6.993 15.9937 7.245 15.6826 7.245ZM15.6826 11.745H10.6201C10.3091 11.745 10.0576 11.4936 10.0576 11.1825C10.0576 10.8714 10.3091 10.62 10.6201 10.62H15.6826C15.9937 10.62 16.2451 10.8714 16.2451 11.1825C16.2451 11.4936 15.9937 11.745 15.6826 11.745ZM15.6826 14.5575H10.6201C10.3091 14.5575 10.0576 14.3061 10.0576 13.995C10.0576 13.6839 10.3091 13.4325 10.6201 13.4325H15.6826C15.9937 13.4325 16.2451 13.6839 16.2451 13.995C16.2451 14.3061 15.9937 14.5575 15.6826 14.5575ZM6.68262 8.37H3.30762C2.37724 8.37 1.62012 7.61287 1.62012 6.6825V3.3075C1.62012 2.37712 2.37724 1.62 3.30762 1.62H6.68262C7.61299 1.62 8.37012 2.37712 8.37012 3.3075V6.6825C8.37012 7.61287 7.61299 8.37 6.68262 8.37ZM3.30762 2.745C2.99768 2.745 2.74512 2.99756 2.74512 3.3075V6.6825C2.74512 6.99243 2.99768 7.245 3.30762 7.245H6.68262C6.99255 7.245 7.24512 6.99243 7.24512 6.6825V3.3075C7.24512 2.99756 6.99255 2.745 6.68262 2.745H3.30762ZM6.68262 16.245H3.30762C2.37724 16.245 1.62012 15.4879 1.62012 14.5575V11.1825C1.62012 10.2521 2.37724 9.495 3.30762 9.495H6.68262C7.61299 9.495 8.37012 10.2521 8.37012 11.1825V14.5575C8.37012 15.4879 7.61299 16.245 6.68262 16.245ZM3.30762 10.62C2.99768 10.62 2.74512 10.872 2.74512 11.1825V14.5575C2.74512 14.868 2.99768 15.12 3.30762 15.12H6.68262C6.99255 15.12 7.24512 14.868 7.24512 14.5575V11.1825C7.24512 10.872 6.99255 10.62 6.68262 10.62H3.30762Z" fill="#333333"/>
</svg>
