<svg width="28" height="28" viewBox="0 0 28 28" fill="none" xmlns="http://www.w3.org/2000/svg">
<path d="M23.3584 12.7775C22.7962 11.5166 21.9916 10.3995 20.9679 9.46084L20.1287 8.6921C20.0046 8.58261 19.8088 8.63167 19.754 8.78712L19.3789 9.86109C19.1454 10.5348 18.7158 11.223 18.1073 11.8995C18.0669 11.9426 18.0206 11.9543 17.9891 11.9571C17.9573 11.9599 17.9084 11.9543 17.865 11.914C17.8246 11.8796 17.8044 11.8277 17.8073 11.7758C17.9138 10.0426 17.3948 8.08759 16.2586 5.96006C15.3191 4.19199 14.0127 2.81281 12.3806 1.85117L11.1898 1.15164C11.0342 1.05945 10.8353 1.18056 10.8438 1.36183L10.9074 2.74386C10.9506 3.68819 10.8412 4.5233 10.5816 5.21715C10.2642 6.06645 9.80879 6.85534 9.2261 7.56365C8.8167 8.05893 8.35816 8.50514 7.85642 8.89093C6.64244 9.8208 5.64182 11.0329 4.96422 12.3891C4.28067 13.7598 3.92041 15.2942 3.92041 16.8316C3.92041 18.1907 4.1886 19.5063 4.71904 20.7474C5.23216 21.9422 5.96484 23.019 6.89615 23.9403C7.83056 24.8617 8.91472 25.5873 10.1228 26.0911C11.3742 26.6151 12.7007 26.88 14.0704 26.88C15.4401 26.88 16.7663 26.6151 18.0181 26.094C19.2264 25.5902 20.3134 24.8676 21.2447 23.9432C22.1788 23.0218 22.9112 21.945 23.4218 20.7502C23.9525 19.5094 24.2204 18.1935 24.2204 16.8347C24.2207 15.4292 23.9323 14.0645 23.3584 12.7775Z" fill="#EA5513"/>
<path d="M7.60511 17.7188V21H6.76705V13.7273H7.60511V16.3977H7.67614C7.80398 16.116 7.99574 15.8923 8.25142 15.7266C8.50947 15.5585 8.85275 15.4744 9.28125 15.4744C9.65294 15.4744 9.97846 15.549 10.2578 15.6982C10.5372 15.8449 10.7538 16.071 10.9077 16.3764C11.0639 16.6795 11.142 17.0653 11.142 17.5341V21H10.304V17.5909C10.304 17.1577 10.1915 16.8227 9.96662 16.5859C9.74408 16.3468 9.43513 16.2273 9.03977 16.2273C8.76515 16.2273 8.51894 16.2853 8.30114 16.4013C8.0857 16.5173 7.91525 16.6866 7.78977 16.9091C7.66667 17.1316 7.60511 17.4015 7.60511 17.7188ZM14.8912 21.1136C14.3987 21.1136 13.9667 20.9964 13.595 20.7621C13.2257 20.5277 12.9368 20.1998 12.7285 19.7784C12.5225 19.357 12.4196 18.8646 12.4196 18.3011C12.4196 17.733 12.5225 17.237 12.7285 16.8132C12.9368 16.3894 13.2257 16.0604 13.595 15.826C13.9667 15.5916 14.3987 15.4744 14.8912 15.4744C15.3836 15.4744 15.8145 15.5916 16.1838 15.826C16.5555 16.0604 16.8443 16.3894 17.0502 16.8132C17.2586 17.237 17.3627 17.733 17.3627 18.3011C17.3627 18.8646 17.2586 19.357 17.0502 19.7784C16.8443 20.1998 16.5555 20.5277 16.1838 20.7621C15.8145 20.9964 15.3836 21.1136 14.8912 21.1136ZM14.8912 20.3608C15.2652 20.3608 15.573 20.2649 15.8145 20.0732C16.0559 19.8814 16.2347 19.6293 16.3507 19.3168C16.4667 19.0043 16.5247 18.6657 16.5247 18.3011C16.5247 17.9366 16.4667 17.5968 16.3507 17.282C16.2347 16.9671 16.0559 16.7126 15.8145 16.5185C15.573 16.3243 15.2652 16.2273 14.8912 16.2273C14.5171 16.2273 14.2093 16.3243 13.9679 16.5185C13.7264 16.7126 13.5476 16.9671 13.4316 17.282C13.3156 17.5968 13.2576 17.9366 13.2576 18.3011C13.2576 18.6657 13.3156 19.0043 13.4316 19.3168C13.5476 19.6293 13.7264 19.8814 13.9679 20.0732C14.2093 20.2649 14.5171 20.3608 14.8912 20.3608ZM21.0142 15.5455V16.2557H18.1875V15.5455H21.0142ZM19.0114 14.2386H19.8494V19.4375C19.8494 19.6742 19.8838 19.8518 19.9524 19.9702C20.0234 20.0862 20.1134 20.1643 20.2223 20.2045C20.3336 20.2424 20.4508 20.2614 20.5739 20.2614C20.6662 20.2614 20.742 20.2566 20.8011 20.2472C20.8603 20.2353 20.9077 20.2259 20.9432 20.2188L21.1136 20.9716C21.0568 20.9929 20.9775 21.0142 20.8757 21.0355C20.7739 21.0592 20.6449 21.071 20.4886 21.071C20.2519 21.071 20.0199 21.0201 19.7926 20.9183C19.5677 20.8165 19.3807 20.6615 19.2315 20.4531C19.0848 20.2448 19.0114 19.982 19.0114 19.6648V14.2386Z" fill="white"/>
</svg>
