<svg width="40" height="40" viewBox="0 0 40 40" fill="none" xmlns="http://www.w3.org/2000/svg">
<path d="M20.0084 25.8285C21.2723 25.8285 28.3539 16.964 28.3539 12.3463C28.3539 10.1327 27.4746 8.00982 25.9096 6.44458C24.3445 4.87934 22.2218 4 20.0084 4C17.7951 4 15.6724 4.87934 14.1073 6.44458C12.5422 8.00982 11.663 10.1327 11.663 12.3463C11.663 16.964 18.7446 25.8285 20.0084 25.8285ZM14.6119 12.3463C14.6119 10.9149 15.1805 9.54215 16.1925 8.53C17.2046 7.51785 18.5772 6.94923 20.0084 6.94923C21.4397 6.94923 22.8123 7.51785 23.8244 8.53C24.8364 9.54215 25.405 10.9149 25.405 12.3463C25.405 13.2458 24.6993 15.3735 22.713 18.4112C21.8959 19.6664 20.9922 20.8631 20.0084 21.9924C19.0247 20.8631 18.121 19.6664 17.3039 18.4112C15.3175 15.384 14.6119 13.2543 14.6119 12.3548V12.3463Z" fill="black"/>
<path d="M17.9021 11.8892C17.9021 12.4479 18.124 12.9837 18.519 13.3788C18.914 13.7738 19.4498 13.9958 20.0084 13.9958C20.5671 13.9958 21.1028 13.7738 21.4979 13.3788C21.8929 12.9837 22.1148 12.4479 22.1148 11.8892C22.1148 11.3305 21.8929 10.7947 21.4979 10.3996C21.1028 10.0045 20.5671 9.7826 20.0084 9.7826C19.4498 9.7826 18.914 10.0045 18.519 10.3996C18.124 10.7947 17.9021 11.3305 17.9021 11.8892Z" fill="black"/>
<path d="M30.2559 15.8201L31.5724 17.5159C31.5898 17.5379 31.6114 17.5561 31.6359 17.5696C31.6605 17.5831 31.6875 17.5916 31.7153 17.5945C31.7432 17.5975 31.7713 17.5948 31.7982 17.5867C31.825 17.5787 31.8499 17.5653 31.8715 17.5475L32.7246 16.8418C32.7554 16.8168 32.7927 16.801 32.8321 16.7963C32.8714 16.7915 32.9114 16.798 32.9473 16.8149C32.9831 16.8319 33.0135 16.8586 33.0349 16.8921C33.0562 16.9255 33.0677 16.9643 33.0679 17.004V27.6276C33.0681 27.6626 33.0595 27.6972 33.043 27.7281C33.0264 27.759 33.0024 27.7852 32.9731 27.8045L25.5777 32.6307C25.5457 32.6492 25.5093 32.6589 25.4724 32.6589C25.4354 32.6589 25.3991 32.6492 25.367 32.6307L14.2643 26.2267C14.2323 26.2082 14.196 26.1985 14.159 26.1985C14.1221 26.1985 14.0857 26.2082 14.0537 26.2267L7.27541 30.7917C7.24388 30.8124 7.20734 30.8244 7.16963 30.8262C7.13192 30.828 7.09441 30.8196 7.06103 30.802C7.02766 30.7843 6.99964 30.758 6.97992 30.7258C6.9602 30.6936 6.94949 30.6567 6.94892 30.6189V19.968C6.94861 19.9372 6.95505 19.9067 6.96779 19.8787C6.98053 19.8507 6.99925 19.8258 7.02264 19.8058L9.76093 17.5075C9.8003 17.4739 9.82593 17.427 9.83293 17.3757C9.83992 17.3244 9.82779 17.2723 9.79884 17.2294L8.47815 15.2682C8.46251 15.2451 8.44243 15.2253 8.41909 15.21C8.39574 15.1947 8.36959 15.1842 8.34215 15.1791C8.31472 15.174 8.28654 15.1744 8.25926 15.1803C8.23198 15.1862 8.20615 15.1974 8.18325 15.2134L4.09057 18.072C4.06267 18.0914 4.03986 18.1172 4.02409 18.1473C4.00832 18.1774 4.00006 18.2108 4 18.2448V35.6453C4.0003 35.6827 4.01058 35.7194 4.02979 35.7516C4.04899 35.7837 4.07642 35.8102 4.10926 35.8282C4.14209 35.8463 4.17914 35.8552 4.21659 35.8542C4.25403 35.8531 4.29051 35.8421 4.32228 35.8222L14.1106 29.5677C14.1426 29.5492 14.1789 29.5395 14.2159 29.5395C14.2529 29.5395 14.2892 29.5492 14.3212 29.5677L25.4007 35.9718C25.4328 35.9903 25.4691 36 25.5061 36C25.543 36 25.5794 35.9903 25.6114 35.9718L35.901 29.5698C35.9311 29.5511 35.9559 29.525 35.9732 29.4941C35.9905 29.4631 35.9997 29.4283 36 29.3929V12.0135C35.9997 11.9754 35.989 11.9381 35.9692 11.9056C35.9494 11.8731 35.9211 11.8465 35.8874 11.8288C35.8537 11.8111 35.8158 11.8028 35.7777 11.8049C35.7397 11.807 35.703 11.8194 35.6714 11.8407L30.3023 15.5189C30.2789 15.5352 30.2591 15.556 30.244 15.5802C30.229 15.6044 30.219 15.6314 30.2146 15.6596C30.2103 15.6877 30.2117 15.7165 30.2188 15.7441C30.2259 15.7717 30.2385 15.7975 30.2559 15.8201Z" fill="black"/>
</svg>
