<svg width="40" height="40" viewBox="0 0 40 40" fill="none" xmlns="http://www.w3.org/2000/svg">
<path d="M33.475 31.575L21.8 19.8499L33.375 8.34995C33.875 7.84995 33.875 7.04995 33.375 6.57495C32.875 6.07495 32.075 6.07495 31.575 6.57495L20 18.05L8.55 6.57495C8.05 6.07495 7.25 6.07495 6.775 6.57495C6.3 7.07495 6.275 7.87495 6.775 8.34995L18.2 19.825L6.375 31.575C5.875 32.075 5.875 32.875 6.375 33.35C6.875 33.85 7.675 33.85 8.175 33.35L20 21.625L31.7 33.35C32.2 33.85 33 33.85 33.475 33.35C33.95 32.875 33.95 32.075 33.475 31.575Z" fill="#666666"/>
</svg>
