<svg width="14" height="14" viewBox="0 0 14 14" fill="none" xmlns="http://www.w3.org/2000/svg">
<path d="M10.0665 5.1392C9.71199 4.57753 9.20942 4.12452 8.61408 3.83001C8.01875 3.53551 7.35372 3.41091 6.69215 3.46993C6.03058 3.52895 5.3981 3.76929 4.8643 4.16453C4.3305 4.55977 3.91605 5.09458 3.66654 5.71013C3.64767 5.75665 3.61167 5.79415 3.56597 5.81491C3.52026 5.83567 3.46833 5.8381 3.42089 5.8217L3.14395 5.72588C3.12244 5.71844 3.10265 5.70672 3.08578 5.69143C3.06891 5.67615 3.05531 5.65761 3.04579 5.63693C3.03626 5.61625 3.03102 5.59386 3.03037 5.5711C3.02972 5.54835 3.03368 5.5257 3.04201 5.50451C3.33259 4.76577 3.82348 4.12273 4.45948 3.64769C5.09549 3.17265 5.8514 2.88444 6.64223 2.81546C7.43306 2.74648 8.22746 2.89947 8.9361 3.25723C9.64475 3.61498 10.2396 4.16333 10.6536 4.8406L10.8273 4.23423C10.8353 4.2066 10.8486 4.18081 10.8665 4.15833C10.8844 4.13585 10.9065 4.11711 10.9317 4.1032L11.2701 3.91573C11.3043 3.89678 11.3433 3.8884 11.3823 3.89164C11.4213 3.89489 11.4584 3.90962 11.489 3.93397C11.5196 3.95832 11.5423 3.9912 11.5542 4.02844C11.5662 4.06569 11.5668 4.10564 11.556 4.14323L11.0347 5.96104C11.0236 5.9998 10.9975 6.03256 10.9622 6.05212C10.927 6.07169 10.8854 6.07646 10.8466 6.06538L9.02876 5.5441C8.99113 5.53336 8.95753 5.51169 8.93222 5.48185C8.90691 5.452 8.89103 5.41531 8.88658 5.37643C8.88213 5.33755 8.88931 5.29823 8.90722 5.26343C8.92514 5.22864 8.95297 5.19994 8.9872 5.18098L9.32561 4.99351C9.37631 4.96538 9.43611 4.95854 9.49186 4.97448L10.0665 5.1392ZM3.94808 8.97213C4.3026 9.5338 4.80517 9.98681 5.4005 10.2813C5.99584 10.5758 6.66087 10.7004 7.32244 10.6414C7.98401 10.5824 8.61649 10.342 9.15029 9.9468C9.68409 9.55156 10.0985 9.01675 10.348 8.4012C10.3669 8.35468 10.4029 8.31718 10.4486 8.29642C10.4943 8.27566 10.5463 8.27323 10.5937 8.28963L10.8706 8.38545C10.8921 8.39292 10.9118 8.40464 10.9287 8.41992C10.9455 8.4352 10.9591 8.45372 10.9686 8.47437C10.9781 8.49503 10.9833 8.51738 10.9839 8.5401C10.9846 8.56282 10.9807 8.58544 10.9724 8.6066C10.3384 10.2203 8.77392 11.3283 7.00161 11.3283C5.48458 11.3283 4.12001 10.5176 3.36073 9.2716L3.18704 9.8771C3.17108 9.93285 3.13362 9.97999 3.08292 10.0081L2.74451 10.1956C2.7103 10.2146 2.67121 10.2231 2.6322 10.2198C2.59318 10.2166 2.556 10.2019 2.52536 10.1775C2.49472 10.1532 2.472 10.1203 2.46008 10.083C2.44816 10.0457 2.44757 10.0057 2.45839 9.9681L2.97967 8.15029C2.99081 8.11153 3.01688 8.07877 3.05215 8.0592C3.08742 8.03964 3.12901 8.03487 3.16779 8.04595L4.98583 8.56723C5.02346 8.57797 5.05705 8.59963 5.08236 8.62948C5.10767 8.65933 5.12356 8.69601 5.12801 8.73489C5.13246 8.77377 5.12528 8.8131 5.10736 8.84789C5.08945 8.88269 5.06162 8.91139 5.02739 8.93035L4.68876 9.11782C4.63806 9.14595 4.57826 9.15279 4.52251 9.13685L3.94808 8.97213Z" fill="#EA5513"/>
</svg>
