<svg width="20" height="20" viewBox="0 0 20 20" fill="none" xmlns="http://www.w3.org/2000/svg">
<circle cx="10" cy="10" r="10" fill="white"/>
<path d="M15.6046 14.151C15.2776 15.0517 14.4703 15.6418 13.5814 15.7032V15.7142C8.022 15.7142 4.28577 11.9978 4.28577 6.39489H4.30178C4.37382 5.51552 4.95701 4.71963 5.84513 4.39563C7.05116 3.95576 7.51123 4.89802 7.95034 6.1071C8.38945 7.31619 8.64102 8.3343 7.435 8.77456C7.29663 8.82488 7.15636 8.85728 7.01533 8.87976C7.50818 10.9114 9.10452 12.4956 11.1312 12.982C11.1541 12.8398 11.1869 12.6976 11.2372 12.5577C11.6759 11.3486 12.6917 11.601 13.8977 12.0412C15.1038 12.4815 16.0433 12.9419 15.6046 14.151Z" fill="#0566B3"/>
</svg>
