<svg width="40" height="40" viewBox="0 0 40 40" fill="none" xmlns="http://www.w3.org/2000/svg">
<path d="M31.8222 6.33728C31.9229 6.23213 32.0435 6.14814 32.177 6.09023C32.3105 6.03232 32.4543 6.00167 32.5998 6.00007C32.7454 5.99846 32.8898 6.02595 33.0245 6.0809C33.1593 6.13585 33.2817 6.21717 33.3847 6.32008C33.4876 6.42299 33.5689 6.54542 33.6239 6.68019C33.6789 6.81496 33.7064 6.95935 33.7048 7.10488C33.7032 7.25042 33.6725 7.39418 33.6147 7.52771C33.5568 7.66125 33.4728 7.78188 33.3676 7.88253L17.9124 23.3382C17.8109 23.4397 17.6904 23.5202 17.5578 23.5751C17.4251 23.63 17.283 23.6583 17.1395 23.6583C16.9959 23.6583 16.8538 23.63 16.7212 23.5751C16.5886 23.5202 16.4681 23.4397 16.3666 23.3382C16.2651 23.2367 16.1846 23.1162 16.1296 22.9836C16.0747 22.851 16.0464 22.7088 16.0464 22.5653C16.0464 22.4217 16.0747 22.2796 16.1296 22.147C16.1846 22.0144 16.2651 21.8939 16.3666 21.7924L31.8222 6.33746V6.3371V6.33728ZM31.5019 17.6749C31.5019 17.385 31.617 17.107 31.822 16.902C32.027 16.6971 32.305 16.5819 32.5948 16.5819C32.8847 16.5819 33.1627 16.6971 33.3677 16.902C33.5727 17.107 33.6878 17.385 33.6878 17.6749V29.6973C33.6878 31.9106 31.8935 33.7047 29.6804 33.7047H10.0075C7.79413 33.7047 6 31.9104 6 29.6973V10.0244C6 7.81106 7.79431 6.01693 10.0075 6.01693H21.6654C21.9553 6.01693 22.2333 6.13208 22.4383 6.33705C22.6432 6.54202 22.7584 6.82003 22.7584 7.1099C22.7584 7.39978 22.6432 7.67778 22.4383 7.88276C22.2333 8.08773 21.9553 8.20288 21.6654 8.20288H10.0075C9.00142 8.20288 8.18596 9.01835 8.18596 10.0244V29.6973C8.18596 30.7033 9.00142 31.5188 10.0075 31.5188H29.6804C30.6864 31.5188 31.5019 30.7033 31.5019 29.6973V17.6749Z" fill="black"/>
</svg>
