<svg width="40" height="40" viewBox="0 0 40 40" fill="none" xmlns="http://www.w3.org/2000/svg">
<circle cx="20" cy="20" r="15.5" stroke="#FD568B"/>
<path d="M20.2366 16.1689L20.6167 16.6134L20.9967 16.1689C21.7197 15.3232 22.8307 14.7857 23.9798 14.7857C26.0093 14.7857 27.5904 16.3668 27.5904 18.3963C27.5904 19.6426 27.0336 20.8143 25.9516 22.1381C24.8641 23.4686 23.2989 24.8908 21.3645 26.6468C21.3644 26.6469 21.3644 26.6469 21.3643 26.647L20.6167 27.325L19.869 26.647C17.9346 24.8909 16.3693 23.4686 15.2817 22.1381C14.1998 20.8143 13.6429 19.6426 13.6429 18.3963C13.6429 16.3668 15.224 14.7857 17.2535 14.7857C18.4026 14.7857 19.5136 15.3232 20.2366 16.1689Z" fill="#FD568B" stroke="#FD568B"/>
</svg>
