<svg width="40" height="40" viewBox="0 0 40 40" fill="none" xmlns="http://www.w3.org/2000/svg">
<path d="M23.4582 29.1378C23.3061 29.1401 23.155 29.1124 23.0138 29.0563C22.8726 29.0002 22.7441 28.9168 22.6357 28.8109C22.5273 28.705 22.4412 28.5788 22.3825 28.4396C22.3237 28.3003 22.2935 28.1509 22.2935 28V15.4311C22.2731 15.2685 22.2877 15.1035 22.3364 14.947C22.3852 14.7905 22.4669 14.646 22.5762 14.5232C22.6855 14.4004 22.8198 14.3021 22.9704 14.2347C23.1209 14.1673 23.2841 14.1325 23.4492 14.1325C23.6143 14.1325 23.7776 14.1673 23.9281 14.2347C24.0786 14.3021 24.213 14.4004 24.3223 14.5232C24.4316 14.646 24.5133 14.7905 24.562 14.947C24.6108 15.1035 24.6254 15.2685 24.6049 15.4311V28C24.6049 28.3018 24.4841 28.5912 24.2691 28.8045C24.054 29.0179 23.7623 29.1378 23.4582 29.1378ZM16.5418 29.1378C16.3905 29.1402 16.2403 29.1124 16.1001 29.0561C15.9599 28.9997 15.8325 28.916 15.7255 28.8099C15.6186 28.7037 15.5342 28.5774 15.4774 28.4382C15.4206 28.2991 15.3926 28.1501 15.3951 28V15.4311C15.395 15.2817 15.4247 15.1337 15.4823 14.9956C15.5399 14.8576 15.6244 14.7321 15.7309 14.6264C15.8373 14.5208 15.9638 14.4369 16.1029 14.3797C16.2421 14.3226 16.3912 14.2931 16.5418 14.2931C16.6924 14.2931 16.8416 14.3226 16.9807 14.3797C17.1199 14.4369 17.2463 14.5208 17.3528 14.6264C17.4593 14.7321 17.5437 14.8576 17.6013 14.9956C17.659 15.1337 17.6886 15.2817 17.6886 15.4311V28C17.6886 28.3018 17.5677 28.5912 17.3527 28.8045C17.1376 29.0179 16.846 29.1378 16.5418 29.1378ZM34.9795 9.70667H29.2099V7.43111C29.2146 6.98222 29.1296 6.53685 28.9597 6.12077C28.7899 5.70469 28.5385 5.32616 28.2203 5.00707C27.902 4.68799 27.5231 4.43469 27.1055 4.26183C26.688 4.08897 26.24 3.99998 25.7875 4H14.2304C13.7771 3.99999 13.3283 4.08887 12.9097 4.26151C12.4911 4.43416 12.1111 4.68718 11.7914 5.00602C11.4717 5.32486 11.2187 5.70325 11.0468 6.11942C10.875 6.5356 10.7878 6.98137 10.7901 7.43111V9.70667H5.02049C4.73876 9.74154 4.47956 9.87732 4.29164 10.0885C4.10371 10.2996 4 10.5716 4 10.8533C4 11.135 4.10371 11.407 4.29164 11.6182C4.47956 11.8293 4.73876 11.9651 5.02049 12H34.9795C35.2612 11.9651 35.5204 11.8293 35.7084 11.6182C35.8963 11.407 36 11.135 36 10.8533C36 10.5716 35.8963 10.2996 35.7084 10.0885C35.5204 9.87732 35.2612 9.74154 34.9795 9.70667ZM13.0836 7.43111C13.0836 7.12935 13.2044 6.83996 13.4195 6.62658C13.6346 6.41321 13.9262 6.29333 14.2304 6.29333H25.7875C25.9373 6.29331 26.0856 6.32286 26.2237 6.38026C26.3618 6.43765 26.4871 6.52174 26.5921 6.62763C26.6972 6.73353 26.78 6.8591 26.8356 6.99704C26.8913 7.13499 26.9188 7.28254 26.9164 7.43111V9.70667H13.0836V7.43111ZM28.0631 36H11.9369C11.0197 36 10.1401 35.6385 9.49156 34.9951C8.84302 34.3516 8.47868 33.4789 8.47868 32.5689V15.4133C8.51383 15.1338 8.65068 14.8766 8.86351 14.6902C9.07633 14.5037 9.35048 14.4008 9.6344 14.4008C9.91832 14.4008 10.1925 14.5037 10.4053 14.6902C10.6181 14.8766 10.755 15.1338 10.7901 15.4133V32.5689C10.7901 32.8706 10.9109 33.16 11.126 33.3734C11.341 33.5868 11.6327 33.7067 11.9369 33.7067H28.0631C28.2152 33.709 28.3663 33.6813 28.5075 33.6252C28.6487 33.5691 28.7772 33.4857 28.8856 33.3798C28.994 33.2739 29.0801 33.1477 29.1388 33.0084C29.1976 32.8692 29.2278 32.7198 29.2278 32.5689V15.4489C29.2278 15.1471 29.3486 14.8577 29.5637 14.6444C29.7787 14.431 30.0704 14.3111 30.3746 14.3111C30.6787 14.3111 30.9704 14.431 31.1854 14.6444C31.4005 14.8577 31.5213 15.1471 31.5213 15.4489V32.5689C31.5213 33.4789 31.157 34.3516 30.5084 34.9951C29.8599 35.6385 28.9803 36 28.0631 36Z" fill="black"/>
</svg>
