<svg width="40" height="40" viewBox="0 0 40 40" fill="none" xmlns="http://www.w3.org/2000/svg">
<path d="M17.3333 25.2353V15.7647L25.3333 20.5162L17.3333 25.2353ZM35.68 13.9612C35.68 13.9612 35.3667 11.7086 34.408 10.7155C33.1907 9.41265 31.8267 9.40723 31.2013 9.33147C26.724 9 20.0067 9 20.0067 9H19.9933C19.9933 9 13.276 9 8.79867 9.33147C8.172 9.40723 6.80933 9.41265 5.59067 10.7155C4.632 11.7086 4.32 13.9626 4.32 13.9626C4.32 13.9626 4 16.6062 4 19.2512V21.7339C4 24.3802 4.32 27.0266 4.32 27.0266C4.32 27.0266 4.632 29.2792 5.59067 30.2723C6.80933 31.5752 8.408 31.5332 9.12 31.6699C11.68 31.9229 20 32 20 32C20 32 26.724 31.9892 31.2013 31.6591C31.828 31.5819 33.1907 31.5765 34.408 30.2736C35.368 29.2806 35.68 27.0266 35.68 27.0266C35.68 27.0266 36 24.3816 36 21.7352V19.2539C36 16.6076 35.68 13.9612 35.68 13.9612Z" fill="#FF0000"/>
</svg>
