<svg width="40" height="40" viewBox="0 0 40 40" fill="none" xmlns="http://www.w3.org/2000/svg">
<path d="M34.657 31.2903H5.34303C4.62675 31.2903 4 31.9226 4 32.6452C4 33.3677 4.62675 34 5.34303 34H34.657C35.3733 34 36 33.3677 36 32.6452C36 31.9226 35.3733 31.2903 34.657 31.2903ZM5.34303 8.70968H34.657C35.3733 8.70968 36 8.07742 36 7.35484C36 6.63226 35.3733 6 34.657 6L5.34303 6C4.62675 6 4 6.63226 4 7.35484C4 8.07742 4.62675 8.70968 5.34303 8.70968ZM34.657 18.6452H5.34303C4.62675 18.6452 4 19.2774 4 20C4 20.7226 4.62675 21.3548 5.34303 21.3548H34.657C35.3733 21.3548 36 20.7226 36 20C36 19.2774 35.3733 18.6452 34.657 18.6452Z" fill="black"/>
</svg>
