<svg width="40" height="40" viewBox="0 0 40 40" fill="none" xmlns="http://www.w3.org/2000/svg">
<path d="M20 4C12.8303 4 7 10 7 17.28C7 27.2 18.8182 35.44 19.3697 35.76C19.6061 35.92 19.7636 36 20 36C20.2364 36 20.4727 35.92 20.6303 35.76C21.103 35.44 33 27.2 33 17.28C33 10 27.1697 4 20 4ZM20 33.36C17.5576 31.52 9.36364 24.8 9.36364 17.36C9.36364 11.36 14.1697 6.48 20 6.48C25.8303 6.48 30.6364 11.36 30.6364 17.36C30.6364 24.72 22.4424 31.52 20 33.36Z" fill="black"/>
<path d="M20.0005 12.8001C17.1642 12.8001 14.8793 15.1201 14.8793 18.0001C14.8793 20.8801 17.1642 23.2001 20.0005 23.2001C22.8369 23.2001 25.1218 20.8801 25.1218 18.0001C25.1218 15.1201 22.8369 12.8001 20.0005 12.8001ZM20.0005 20.8001C18.5036 20.8001 17.243 19.5201 17.243 18.0001C17.243 16.4801 18.5036 15.2001 20.0005 15.2001C21.4975 15.2001 22.7581 16.4801 22.7581 18.0001C22.7581 19.5201 21.4975 20.8001 20.0005 20.8001Z" fill="black"/>
</svg>
