<svg width="16" height="16" viewBox="0 0 16 16" fill="none" xmlns="http://www.w3.org/2000/svg">
<path d="M15.8464 13.8115C15.3885 15.0725 14.2583 15.8986 13.0138 15.9845V16C5.23072 16 0 10.797 0 2.95294H0.0224128C0.12327 1.72183 0.939737 0.60758 2.18312 0.153982C3.87155 -0.461842 4.51565 0.857325 5.1304 2.55004C5.74515 4.24276 6.09735 5.66812 4.40892 6.28448C4.21521 6.35492 4.01883 6.40028 3.82139 6.43177C4.51138 9.27609 6.74626 11.4939 9.58361 12.1748C9.61563 11.9758 9.66153 11.7767 9.73197 11.5809C10.3462 9.88818 11.7683 10.2414 13.4568 10.8578C15.1452 11.4742 16.4606 12.1188 15.8464 13.8115Z" fill="white"/>
</svg>
