<svg width="40" height="40" viewBox="0 0 40 40" fill="none" xmlns="http://www.w3.org/2000/svg">
<path d="M19.9998 35.9995C28.8361 35.9995 36 28.8366 36 19.9998C36 11.1639 28.8361 4 19.9998 4C11.1634 4 4 11.1639 4 19.9998C3.99996 28.8366 11.1634 35.9995 19.9998 35.9995Z" fill="#537BBC"/>
<path d="M16.1401 17.2906H17.7942V15.6829C17.7942 14.9741 17.8121 13.8809 18.3271 13.2038C18.8695 12.4868 19.6141 11.9994 20.8948 11.9994C22.9815 11.9994 23.8603 12.2971 23.8603 12.2971L23.4468 14.7477C23.4468 14.7477 22.7574 14.5483 22.1143 14.5483C21.4708 14.5483 20.8948 14.7789 20.8948 15.422V17.2906H23.5328L23.3486 19.6842H20.8948V27.9996H17.7942V19.6842H16.1401V17.2906Z" fill="white"/>
</svg>
