<svg width="48" height="48" viewBox="0 0 48 48" fill="none" xmlns="http://www.w3.org/2000/svg">
<rect width="48" height="48" fill="white"/>
<path d="M40.4802 36.4H7.74023C6.94023 36.4 6.24023 37.1 6.24023 37.9C6.24023 38.7 6.94023 39.4 7.74023 39.4H40.4802C41.2802 39.4 41.9802 38.7 41.9802 37.9C41.9802 37.1 41.2802 36.4 40.4802 36.4ZM7.74023 11.4H40.4802C41.2802 11.4 41.9802 10.7 41.9802 9.89999C41.9802 9.09999 41.2802 8.39999 40.4802 8.39999L7.74023 8.39999C6.94023 8.39999 6.24023 9.09999 6.24023 9.89999C6.24023 10.7 6.94023 11.4 7.74023 11.4ZM40.4802 22.4H7.74023C6.94023 22.4 6.24023 23.1 6.24023 23.9C6.24023 24.7 6.94023 25.4 7.74023 25.4H40.4802C41.2802 25.4 41.9802 24.7 41.9802 23.9C41.9802 23.1 41.2802 22.4 40.4802 22.4Z" fill="#666666"/>
</svg>
